<svg xmlns="http://www.w3.org/2000/svg" viewBox="0 0 1600 900" font-family="ui-sans-serif,system-ui,-apple-system,'Segoe UI',Roboto,sans-serif">
  <style>
    .m{font-family:ui-monospace,'SF Mono',Menlo,monospace}
    .nav{font-size:14.5px;fill:#A7B2C2}
    .navA{font-size:14.5px;font-weight:600;fill:#6CA8FF}
    .lbl{font-size:11px;letter-spacing:.1em;fill:#6B7688;font-weight:600}
    .sub{font-size:13.5px;fill:#A7B2C2}
    .mut{font-size:13px;fill:#6B7688}
    .pill{font-size:11px;font-weight:700;letter-spacing:.04em}
    .tab{font-size:14px;fill:#A7B2C2}
  </style>
  <rect width="1600" height="900" fill="#0A0F16"/>

  <!-- Sidebar -->
  <rect width="260" height="900" fill="#0C1117"/>
  <line x1="260" y1="0" x2="260" y2="900" stroke="#1C2530"/>
  <text x="24" y="54" font-size="24" font-weight="800" fill="#FFFFFF">bluejuice.</text>
  <g class="nav">
    <text x="52" y="126">Home</text>
    <text x="52" y="172">Inbox</text>
    <circle cx="230" cy="167" r="10" fill="#3E82F7"/><text x="230" y="171" text-anchor="middle" font-size="11" font-weight="700" fill="#fff">3</text>
    <text x="52" y="218">Tasks</text>
    <text x="52" y="264">Calendar</text>
    <text x="52" y="310">Clients</text>
    <rect x="8" y="328" width="244" height="40" rx="8" fill="#14202E"/>
    <rect x="8" y="328" width="3" height="40" rx="1.5" fill="#3E82F7"/>
    <text x="52" y="354" class="navA">Projects</text>
    <text x="52" y="402">Pre-Sales</text>
    <text x="52" y="448">Pre-Production</text>
    <text x="52" y="494">Production</text>
    <text x="52" y="540">Post-Production</text>
    <text x="52" y="586">Finance</text>
    <text x="52" y="632">Equipment</text>
    <text x="52" y="678">Studio</text>
    <text x="52" y="724">Settings</text>
  </g>
  <g>
    <rect x="26" y="118" width="15" height="15" rx="3" stroke="#5A6678" fill="none" stroke-width="1.5"/>
    <rect x="26" y="164" width="15" height="15" rx="3" stroke="#5A6678" fill="none" stroke-width="1.5"/>
    <rect x="26" y="210" width="15" height="15" rx="3" stroke="#5A6678" fill="none" stroke-width="1.5"/>
    <rect x="26" y="256" width="15" height="15" rx="3" stroke="#5A6678" fill="none" stroke-width="1.5"/>
    <rect x="26" y="302" width="15" height="15" rx="3" stroke="#5A6678" fill="none" stroke-width="1.5"/>
    <rect x="26" y="341" width="15" height="15" rx="3" stroke="#6CA8FF" fill="none" stroke-width="1.5"/>
    <rect x="26" y="394" width="15" height="15" rx="3" stroke="#5A6678" fill="none" stroke-width="1.5"/>
    <rect x="26" y="440" width="15" height="15" rx="3" stroke="#5A6678" fill="none" stroke-width="1.5"/>
    <rect x="26" y="486" width="15" height="15" rx="3" stroke="#5A6678" fill="none" stroke-width="1.5"/>
    <rect x="26" y="532" width="15" height="15" rx="3" stroke="#5A6678" fill="none" stroke-width="1.5"/>
    <rect x="26" y="578" width="15" height="15" rx="3" stroke="#5A6678" fill="none" stroke-width="1.5"/>
    <rect x="26" y="624" width="15" height="15" rx="3" stroke="#5A6678" fill="none" stroke-width="1.5"/>
    <rect x="26" y="670" width="15" height="15" rx="3" stroke="#5A6678" fill="none" stroke-width="1.5"/>
    <rect x="26" y="716" width="15" height="15" rx="3" stroke="#5A6678" fill="none" stroke-width="1.5"/>
  </g>
  <rect x="16" y="768" width="228" height="46" rx="10" fill="#101823" stroke="#2A3546"/>
  <circle cx="38" cy="791" r="4" fill="#34C77B"/>
  <text x="52" y="796" class="sub">Agents — 4 running</text>
  <line x1="0" y1="832" x2="260" y2="832" stroke="#1C2530"/>
  <circle cx="38" cy="864" r="17" fill="#1B2836"/>
  <text x="38" y="869" text-anchor="middle" font-size="12" font-weight="700" fill="#A7B2C2">CS</text>
  <text x="64" y="860" font-size="14" fill="#E7ECF3">Craig Sawyer</text>
  <text x="64" y="878" font-size="10.5" class="m" fill="#6B7688">ADMIN</text>

  <!-- Project header -->
  <rect x="300" y="36" width="52" height="52" rx="12" fill="#16202E" stroke="#2A3546"/>
  <rect x="316" y="52" width="20" height="20" rx="4" stroke="#A7B2C2" fill="none" stroke-width="2"/>
  <text x="372" y="52" class="m" font-size="13" fill="#6B7688">HC-2601 · Harrison &amp; Co</text>
  <text x="372" y="82" font-size="26" font-weight="700" fill="#E7ECF3">Annual Content Retainer</text>
  <text x="372" y="112" class="lbl">SHOOT</text>
  <rect x="428" y="96" width="108" height="24" rx="6" fill="#12291C"/>
  <text x="482" y="113" text-anchor="middle" class="m" font-size="12.5" fill="#34C77B">14 Jul 2026</text>

  <rect x="1128" y="42" width="86" height="30" rx="15" fill="#12291C"/>
  <circle cx="1146" cy="57" r="4" fill="#34C77B"/><text x="1156" y="62" class="pill" fill="#34C77B">Active</text>
  <text x="1234" y="62" class="sub">Frame.io ↗</text>
  <text x="1330" y="62" class="mut">Rename · Edit link</text>
  <rect x="1462" y="42" width="104" height="30" rx="15" fill="#12291C"/>
  <circle cx="1480" cy="57" r="4" fill="#34C77B"/><text x="1490" y="62" class="pill" fill="#34C77B">On Track</text>
  <g font-size="11" font-weight="700">
    <circle cx="1478" cy="96" r="13" fill="#1B2836"/><text x="1478" y="100" text-anchor="middle" fill="#A7B2C2">CS</text>
    <circle cx="1502" cy="96" r="13" fill="#233046"/><text x="1502" y="100" text-anchor="middle" fill="#A7B2C2">JT</text>
    <circle cx="1526" cy="96" r="13" fill="#1B2836"/><text x="1526" y="100" text-anchor="middle" fill="#A7B2C2">SR</text>
    <circle cx="1550" cy="96" r="13" fill="#233046"/><text x="1550" y="100" text-anchor="middle" fill="#A7B2C2">EF</text>
  </g>

  <!-- Tabs -->
  <g class="tab">
    <text x="300" y="160">Overview</text>
    <text x="400" y="160">Crew &amp; Freelancers</text>
    <text x="566" y="160">Equipment</text>
    <text x="672" y="160">Locations</text>
    <text x="774" y="160">Schedule</text>
    <text x="872" y="160">Call Sheets</text>
    <text x="980" y="160">Brief</text>
    <text x="1040" y="160">Tasks</text>
    <text x="1108" y="160" font-weight="700" fill="#E7ECF3">Deliverables</text>
    <text x="1226" y="160">Frame.io</text>
    <text x="1314" y="160">Activity</text>
    <text x="1394" y="160">Drive Files</text>
  </g>
  <line x1="260" y1="176" x2="1600" y2="176" stroke="#1C2530"/>
  <rect x="1104" y="172" width="116" height="3" rx="1.5" fill="#3E82F7"/>

  <text x="300" y="232" font-size="22" font-weight="700" fill="#E7ECF3">Not Started · 12</text>

  <!-- Deliverable cards: 3 x 2 -->
  <!-- Card template geometry: w=400 h=260; cols x=300,730,1160; rows y=260,570 -->
  <g>
    <rect x="300" y="260" width="400" height="260" rx="14" fill="#0E1520" stroke="#1D2735"/>
    <rect x="324" y="284" width="106" height="26" rx="13" fill="#1A2230"/>
    <circle cx="340" cy="297" r="3.5" fill="#6B7688"/><text x="350" y="301" class="pill" fill="#A7B2C2">NOT STARTED</text>
    <text x="444" y="301" class="m" font-size="11" fill="#6B7688">POST_PRODUCTION</text>
    <text x="324" y="342" font-size="16.5" font-weight="600" fill="#E7ECF3">Hero film — 90s cut (English)</text>
    <rect x="324" y="360" width="52" height="24" rx="6" fill="#101823" stroke="#232E3F"/><text x="350" y="377" text-anchor="middle" class="m" font-size="11.5" fill="#A7B2C2">16:9</text>
    <rect x="384" y="360" width="140" height="24" rx="6" fill="#101823" stroke="#232E3F"/><text x="454" y="377" text-anchor="middle" class="m" font-size="11.5" fill="#A7B2C2">UHD (3840×2160)</text>
    <rect x="324" y="400" width="352" height="42" rx="8" fill="#101823" stroke="#232E3F"/>
    <text x="340" y="426" font-size="13" fill="#6CA8FF">▸ Link a Frame.io edit</text>
    <text x="500" y="426" font-size="13" fill="#6B7688">⌁ Paste link</text>
    <line x1="324" y1="462" x2="676" y2="462" stroke="#161f2c"/>
    <circle cx="336" cy="488" r="12" fill="#1B2836"/><text x="336" y="492" text-anchor="middle" font-size="10" font-weight="700" fill="#A7B2C2">SR</text>
    <text x="356" y="493" class="sub">Sam Reid</text>
  </g>
  <g>
    <rect x="730" y="260" width="400" height="260" rx="14" fill="#0E1520" stroke="#3E82F7"/>
    <rect x="754" y="284" width="106" height="26" rx="13" fill="#1A2230"/>
    <circle cx="770" cy="297" r="3.5" fill="#6B7688"/><text x="780" y="301" class="pill" fill="#A7B2C2">NOT STARTED</text>
    <text x="874" y="301" class="m" font-size="11" fill="#6B7688">POST_PRODUCTION</text>
    <text x="754" y="342" font-size="16.5" font-weight="600" fill="#E7ECF3">Hero film — 90s cut (German)</text>
    <rect x="754" y="360" width="52" height="24" rx="6" fill="#101823" stroke="#232E3F"/><text x="780" y="377" text-anchor="middle" class="m" font-size="11.5" fill="#A7B2C2">16:9</text>
    <rect x="814" y="360" width="140" height="24" rx="6" fill="#101823" stroke="#232E3F"/><text x="884" y="377" text-anchor="middle" class="m" font-size="11.5" fill="#A7B2C2">UHD (3840×2160)</text>
    <rect x="754" y="400" width="352" height="42" rx="8" fill="#101823" stroke="#232E3F"/>
    <text x="770" y="426" font-size="13" fill="#6CA8FF">▸ Link a Frame.io edit</text>
    <text x="930" y="426" font-size="13" fill="#6B7688">⌁ Paste link</text>
    <line x1="754" y1="462" x2="1106" y2="462" stroke="#161f2c"/>
    <circle cx="766" cy="488" r="12" fill="#1B2836"/><text x="766" y="492" text-anchor="middle" font-size="10" font-weight="700" fill="#A7B2C2">SR</text>
    <text x="786" y="493" class="sub">Sam Reid</text>
  </g>
  <g>
    <rect x="1160" y="260" width="400" height="260" rx="14" fill="#0E1520" stroke="#1D2735"/>
    <rect x="1184" y="284" width="106" height="26" rx="13" fill="#1A2230"/>
    <circle cx="1200" cy="297" r="3.5" fill="#6B7688"/><text x="1210" y="301" class="pill" fill="#A7B2C2">NOT STARTED</text>
    <text x="1304" y="301" class="m" font-size="11" fill="#6B7688">POST_PRODUCTION</text>
    <text x="1184" y="342" font-size="16.5" font-weight="600" fill="#E7ECF3">Founder interview (English)</text>
    <rect x="1184" y="360" width="52" height="24" rx="6" fill="#101823" stroke="#232E3F"/><text x="1210" y="377" text-anchor="middle" class="m" font-size="11.5" fill="#A7B2C2">16:9</text>
    <rect x="1244" y="360" width="140" height="24" rx="6" fill="#101823" stroke="#232E3F"/><text x="1314" y="377" text-anchor="middle" class="m" font-size="11.5" fill="#A7B2C2">UHD (3840×2160)</text>
    <rect x="1184" y="400" width="352" height="42" rx="8" fill="#101823" stroke="#232E3F"/>
    <text x="1200" y="426" font-size="13" fill="#6CA8FF">▸ Link a Frame.io edit</text>
    <text x="1360" y="426" font-size="13" fill="#6B7688">⌁ Paste link</text>
    <line x1="1184" y1="462" x2="1536" y2="462" stroke="#161f2c"/>
    <circle cx="1196" cy="488" r="12" fill="#1B2836"/><text x="1196" y="492" text-anchor="middle" font-size="10" font-weight="700" fill="#A7B2C2">EF</text>
    <text x="1216" y="493" class="sub">Ella Ford</text>
  </g>
  <g>
    <rect x="300" y="570" width="400" height="260" rx="14" fill="#0E1520" stroke="#1D2735"/>
    <rect x="324" y="594" width="106" height="26" rx="13" fill="#1A2230"/>
    <circle cx="340" cy="607" r="3.5" fill="#6B7688"/><text x="350" y="611" class="pill" fill="#A7B2C2">NOT STARTED</text>
    <text x="444" y="611" class="m" font-size="11" fill="#6B7688">POST_PRODUCTION</text>
    <text x="324" y="652" font-size="16.5" font-weight="600" fill="#E7ECF3">Testimonial — client story #1</text>
    <rect x="324" y="670" width="52" height="24" rx="6" fill="#101823" stroke="#232E3F"/><text x="350" y="687" text-anchor="middle" class="m" font-size="11.5" fill="#A7B2C2">16:9</text>
    <rect x="384" y="670" width="140" height="24" rx="6" fill="#101823" stroke="#232E3F"/><text x="454" y="687" text-anchor="middle" class="m" font-size="11.5" fill="#A7B2C2">UHD (3840×2160)</text>
    <rect x="324" y="710" width="352" height="42" rx="8" fill="#101823" stroke="#232E3F"/>
    <text x="340" y="736" font-size="13" fill="#6CA8FF">▸ Link a Frame.io edit</text>
    <text x="500" y="736" font-size="13" fill="#6B7688">⌁ Paste link</text>
    <line x1="324" y1="772" x2="676" y2="772" stroke="#161f2c"/>
    <circle cx="336" cy="798" r="12" fill="#1B2836"/><text x="336" y="802" text-anchor="middle" font-size="10" font-weight="700" fill="#A7B2C2">SR</text>
    <text x="356" y="803" class="sub">Sam Reid</text>
  </g>
  <g>
    <rect x="730" y="570" width="400" height="260" rx="14" fill="#0E1520" stroke="#1D2735"/>
    <rect x="754" y="594" width="106" height="26" rx="13" fill="#1A2230"/>
    <circle cx="770" cy="607" r="3.5" fill="#6B7688"/><text x="780" y="611" class="pill" fill="#A7B2C2">NOT STARTED</text>
    <text x="874" y="611" class="m" font-size="11" fill="#6B7688">POST_PRODUCTION</text>
    <text x="754" y="652" font-size="16.5" font-weight="600" fill="#E7ECF3">Event teaser — 30s</text>
    <rect x="754" y="670" width="52" height="24" rx="6" fill="#101823" stroke="#232E3F"/><text x="780" y="687" text-anchor="middle" class="m" font-size="11.5" fill="#A7B2C2">16:9</text>
    <rect x="814" y="670" width="140" height="24" rx="6" fill="#101823" stroke="#232E3F"/><text x="884" y="687" text-anchor="middle" class="m" font-size="11.5" fill="#A7B2C2">UHD (3840×2160)</text>
    <rect x="754" y="710" width="352" height="42" rx="8" fill="#101823" stroke="#232E3F"/>
    <text x="770" y="736" font-size="13" fill="#6CA8FF">▸ Link a Frame.io edit</text>
    <text x="930" y="736" font-size="13" fill="#6B7688">⌁ Paste link</text>
    <line x1="754" y1="772" x2="1106" y2="772" stroke="#161f2c"/>
    <circle cx="766" cy="798" r="12" fill="#1B2836"/><text x="766" y="802" text-anchor="middle" font-size="10" font-weight="700" fill="#A7B2C2">JT</text>
    <text x="786" y="803" class="sub">Jamie Turner</text>
  </g>
  <g>
    <rect x="1160" y="570" width="400" height="260" rx="14" fill="#0E1520" stroke="#1D2735"/>
    <rect x="1184" y="594" width="106" height="26" rx="13" fill="#1A2230"/>
    <circle cx="1200" cy="607" r="3.5" fill="#6B7688"/><text x="1210" y="611" class="pill" fill="#A7B2C2">NOT STARTED</text>
    <text x="1304" y="611" class="m" font-size="11" fill="#6B7688">POST_PRODUCTION</text>
    <text x="1184" y="652" font-size="16.5" font-weight="600" fill="#E7ECF3">Social cut — 9:16 (series of 6)</text>
    <rect x="1184" y="670" width="52" height="24" rx="6" fill="#101823" stroke="#232E3F"/><text x="1210" y="687" text-anchor="middle" class="m" font-size="11.5" fill="#A7B2C2">9:16</text>
    <rect x="1244" y="670" width="140" height="24" rx="6" fill="#101823" stroke="#232E3F"/><text x="1314" y="687" text-anchor="middle" class="m" font-size="11.5" fill="#A7B2C2">HD (1080×1920)</text>
    <rect x="1184" y="710" width="352" height="42" rx="8" fill="#101823" stroke="#232E3F"/>
    <text x="1200" y="736" font-size="13" fill="#6CA8FF">▸ Link a Frame.io edit</text>
    <text x="1360" y="736" font-size="13" fill="#6B7688">⌁ Paste link</text>
    <line x1="1184" y1="772" x2="1536" y2="772" stroke="#161f2c"/>
    <circle cx="1196" cy="798" r="12" fill="#1B2836"/><text x="1196" y="802" text-anchor="middle" font-size="10" font-weight="700" fill="#A7B2C2">EF</text>
    <text x="1216" y="803" class="sub">Ella Ford</text>
  </g>
</svg>
